<svg version="1.1" id="Layer_1" xmlns="http://www.w3.org/2000/svg" xmlns:xlink="http://www.w3.org/1999/xlink" x="0px" y="0px"
	 width="100%" viewBox="0 0 406 124" enable-background="new 0 0 406 124" xml:space="preserve">
<path fill="#FEFEFE" opacity="1.000000" stroke="none" 
	d="
M274.000000,125.000000 
	C182.666672,125.000000 91.833359,125.000000 1.000024,125.000000 
	C1.000016,83.666679 1.000016,42.333366 1.000008,1.000036 
	C136.333298,1.000024 271.666595,1.000024 406.999939,1.000012 
	C406.999939,42.333298 406.999939,83.666595 406.999969,124.999947 
	C362.833344,125.000000 318.666656,125.000000 274.000000,125.000000 
M105.499916,3.000688 
	C75.197136,3.000864 44.894329,2.981316 14.591588,3.015192 
	C7.088592,3.023579 3.033590,6.948207 3.022939,14.312407 
	C2.976463,46.446686 2.977132,78.581108 3.022942,110.715385 
	C3.033137,117.867142 7.056331,121.966476 14.119903,121.975861 
	C50.583164,122.024323 87.046547,122.020073 123.509827,121.979927 
	C130.649185,121.972069 134.842743,117.988380 134.860260,110.937614 
	C134.940536,78.636978 134.941635,46.335899 134.859299,14.035265 
	C134.841354,6.994068 130.637329,3.094363 123.482590,3.014185 
	C117.822327,2.950755 112.160789,3.000951 105.499916,3.000688 
M177.790970,43.731365 
	C172.870361,39.624264 167.082016,40.040630 160.860733,40.304134 
	C160.860733,55.673740 160.860733,70.781822 160.860733,86.084007 
	C168.964798,85.736359 177.238388,87.755890 181.325714,78.605347 
	C183.895340,72.852600 182.356873,66.817719 176.868286,61.246288 
	C182.665558,56.139065 181.879913,50.325329 177.790970,43.731365 
M249.131348,61.352272 
	C245.644135,54.322578 242.156937,47.292885 238.487442,39.895729 
	C230.764526,55.458786 223.281158,70.539131 215.632660,85.952217 
	C231.151077,85.952217 246.031982,85.952217 261.374969,85.952217 
	C257.277496,77.707649 253.377823,69.861122 249.131348,61.352272 
M275.907013,64.430374 
	C275.907013,56.507874 275.907013,48.585373 275.907013,40.346500 
	C273.100403,40.540920 270.671661,40.709164 268.127045,40.885437 
	C268.127045,51.813992 268.103607,62.295555 268.156647,72.776726 
	C268.163269,74.087334 268.508240,75.411179 268.808563,76.702812 
	C270.285309,83.053810 274.106689,86.162361 280.400391,86.186546 
	C287.520050,86.213913 292.838379,82.861732 293.210938,76.288780 
	C293.874054,64.589172 293.397308,52.824951 293.397308,40.456005 
	C291.058258,40.648888 288.725922,40.841217 286.327148,41.039024 
	C286.327148,49.186810 286.412964,56.671402 286.286346,64.152397 
	C286.233246,67.291824 286.281555,70.625458 285.233978,73.486389 
	C284.560455,75.325623 281.974335,76.464516 280.245483,77.917320 
	C278.885651,76.241867 276.931366,74.756393 276.319489,72.841896 
	C275.588135,70.553459 276.004852,67.898102 275.907013,64.430374 
M200.707581,48.011311 
	C203.287888,48.011311 205.868210,48.011311 208.928207,48.011311 
	C208.629166,44.833847 208.407135,42.474674 208.218765,40.473175 
	C201.507767,40.473175 195.428543,40.473175 189.257202,40.473175 
	C189.257202,55.834023 189.257202,70.709175 189.257202,86.123680 
	C194.346283,86.123680 198.977356,86.139793 203.608261,86.117561 
	C206.327194,86.104507 208.829330,86.249329 208.791229,82.096741 
	C208.754974,78.142250 206.674194,77.280075 203.509415,77.199928 
	C201.419022,77.146988 199.326202,77.189911 197.265656,77.189911 
	C197.265656,73.182610 197.265656,69.591278 197.265656,65.826462 
	C200.936020,65.587639 204.331711,65.366692 207.811066,65.140297 
	C207.811066,62.406178 207.811066,60.175392 207.811066,57.530128 
	C204.056931,57.530128 200.651871,57.530128 197.039215,57.530128 
	C197.039215,55.286144 196.689560,53.371059 197.149704,51.675781 
	C197.518661,50.316456 198.870239,49.223839 200.707581,48.011311 
M395.450409,40.464867 
	C393.710052,41.588032 391.275452,42.316128 390.366913,43.912651 
	C388.146423,47.814739 386.631653,52.118416 384.339966,57.395233 
	C382.514191,52.817356 381.132233,49.476910 379.846008,46.099998 
	C377.520172,39.993637 376.544006,39.493507 369.309418,41.449116 
	C375.852753,55.514614 384.225525,69.135063 380.142059,85.825455 
	C383.382263,85.825455 385.661896,85.825455 388.416931,85.825455 
	C388.416931,83.183868 388.442200,80.712563 388.412231,78.241920 
	C388.318909,70.557037 388.845581,63.082111 392.870728,56.138355 
	C395.097900,52.296299 396.391998,47.924038 398.295288,43.879532 
	C399.443604,41.439434 398.769135,40.479675 395.450409,40.464867 
M352.029327,73.544594 
	C352.029327,70.788506 352.029327,68.032410 352.029327,64.822350 
	C356.173553,64.822350 359.578003,64.822350 363.177795,64.822350 
	C363.047607,62.086403 362.940552,59.836716 362.806366,57.016571 
	C358.953308,57.016571 355.569916,57.016571 351.878235,57.016571 
	C352.106049,53.663410 352.291412,50.934879 352.500671,47.854904 
	C356.344269,47.854904 359.624542,47.854904 363.227417,47.854904 
	C363.227417,45.073479 363.227417,42.690998 363.227417,40.150917 
	C358.215240,40.150917 353.577240,40.355320 348.966980,40.085419 
	C345.361511,39.874344 343.955231,40.908928 344.019806,44.760555 
	C344.211975,56.222687 343.998230,67.691010 344.031097,79.156654 
	C344.050079,85.782806 345.091278,86.440178 352.028809,84.318039 
	C352.028809,81.118027 352.028809,77.820984 352.029327,73.544594 
M307.937347,79.400002 
	C307.937347,81.514038 307.937347,83.628082 307.937347,85.810577 
	C310.663391,85.810577 312.773987,85.810577 315.620239,85.810577 
	C315.620239,73.072266 315.620239,60.527843 315.620239,48.061527 
	C318.471283,47.881989 320.584229,47.748936 322.840454,47.606853 
	C322.840454,45.114101 322.840454,42.924332 322.840454,40.465874 
	C316.100189,40.465874 309.787262,40.527508 303.476562,40.436867 
	C300.787567,40.398239 299.560669,41.806229 300.252563,44.093616 
	C300.690918,45.542824 302.184113,46.958023 303.569641,47.745712 
	C304.682983,48.378681 306.345215,48.046219 307.880402,48.150028 
	C307.880402,58.500572 307.880402,68.461510 307.937347,79.400002 
M335.112885,40.297363 
	C333.481415,40.297363 331.849945,40.297363 329.748901,40.297363 
	C329.748901,55.560341 329.748901,70.600517 329.748901,85.617958 
	C337.985748,86.301575 337.987000,86.301567 337.953400,78.538231 
	C337.905914,67.575897 337.936615,56.612019 337.724884,45.652832 
	C337.691437,43.922863 336.558105,42.214146 335.112885,40.297363 
z"/>
<path fill="#D62C71" opacity="1.000000" stroke="none" 
	d="
M105.999863,3.000689 
	C112.160789,3.000951 117.822327,2.950755 123.482590,3.014185 
	C130.637329,3.094363 134.841354,6.994068 134.859299,14.035265 
	C134.941635,46.335899 134.940536,78.636978 134.860260,110.937614 
	C134.842743,117.988380 130.649185,121.972069 123.509827,121.979927 
	C87.046547,122.020073 50.583164,122.024323 14.119903,121.975861 
	C7.056331,121.966476 3.033137,117.867142 3.022942,110.715385 
	C2.977132,78.581108 2.976463,46.446686 3.022939,14.312407 
	C3.033590,6.948207 7.088592,3.023579 14.591588,3.015192 
	C44.894329,2.981316 75.197136,3.000864 105.999863,3.000689 
M40.380264,71.169327 
	C40.622059,74.485100 40.469193,77.891113 41.201641,81.094704 
	C42.205475,85.485291 43.795567,89.928398 48.559563,91.679443 
	C53.006325,93.313889 56.148842,90.573128 59.113979,87.744484 
	C59.281742,87.584442 59.632477,87.616203 60.039886,87.527969 
	C61.205280,89.169975 62.042980,91.728989 63.616898,92.316841 
	C68.955338,94.310707 74.471619,96.192474 80.079849,96.983574 
	C84.489052,97.605530 88.580269,93.313744 87.598557,89.115334 
	C86.341881,83.741028 90.101776,83.674698 92.976128,81.742332 
	C97.363609,78.792717 101.813797,75.484398 105.040314,71.385986 
	C108.316193,67.224876 106.267670,62.241272 101.472496,59.806217 
	C100.346291,59.234318 99.128372,58.843006 98.030968,58.400215 
	C99.351814,48.184052 98.972229,42.358437 96.747147,37.743546 
	C93.913528,31.866516 88.717552,29.895712 83.748779,33.541061 
	C80.853683,35.665047 79.112442,34.870255 76.971588,32.510899 
	C76.084427,31.881794 75.197258,31.252689 73.949501,30.367880 
	C73.949501,31.753487 73.949501,32.547321 73.079849,33.331074 
	C67.585785,34.031143 62.091721,34.731213 54.748390,35.666924 
	C56.859512,33.208324 57.873386,31.021370 59.489555,30.399357 
	C61.523140,29.616693 64.057343,29.970716 66.360428,30.101118 
	C68.428078,30.218193 70.475281,30.696392 72.531502,31.015285 
	C67.148582,27.018164 61.325291,24.778028 55.381771,28.125076 
	C50.510998,30.868017 51.871792,35.825054 52.866627,40.400230 
	C51.582066,40.929890 50.359684,41.877693 49.155186,41.855480 
	C43.224266,41.746136 39.728428,45.547043 36.477348,49.584332 
	C30.749304,56.697586 32.342716,62.028133 40.972122,65.895233 
	C40.774593,67.390808 40.577065,68.886383 40.380264,71.169327 
z"/>
<path fill="#1A1A1A" opacity="1.000000" stroke="none" 
	d="
M178.028763,44.031494 
	C181.879913,50.325329 182.665558,56.139065 176.868286,61.246288 
	C182.356873,66.817719 183.895340,72.852600 181.325714,78.605347 
	C177.238388,87.755890 168.964798,85.736359 160.860733,86.084007 
	C160.860733,70.781822 160.860733,55.673740 160.860733,40.304134 
	C167.082016,40.040630 172.870361,39.624264 178.028763,44.031494 
M168.122467,67.939430 
	C168.122467,71.328804 168.122467,74.718178 168.122467,78.107552 
	C168.590927,78.365578 169.059402,78.623596 169.527863,78.881622 
	C171.026215,77.452003 173.571609,76.161110 173.783585,74.561066 
	C174.122391,72.003838 173.024521,69.204498 172.182755,66.622032 
	C172.097733,66.361191 169.602966,66.885818 168.122467,67.939430 
M173.118942,55.052258 
	C173.814682,51.151752 172.758194,48.411835 168.329193,47.639904 
	C168.329193,51.491207 168.329193,55.097435 168.329193,59.745014 
	C170.318817,58.058701 171.617950,56.957619 173.118942,55.052258 
z"/>
<path fill="#232323" opacity="1.000000" stroke="none" 
	d="
M249.304749,61.683430 
	C253.377823,69.861122 257.277496,77.707649 261.374969,85.952217 
	C246.031982,85.952217 231.151077,85.952217 215.632660,85.952217 
	C223.281158,70.539131 230.764526,55.458786 238.487442,39.895729 
	C242.156937,47.292885 245.644135,54.322578 249.304749,61.683430 
M235.190903,72.330193 
	C234.953110,73.098717 234.715317,73.867249 234.529495,74.467842 
	C240.039795,74.467842 245.419983,74.467842 251.307678,74.467842 
	C246.933838,65.704475 242.798737,57.419441 238.489853,48.786236 
	C232.921997,59.977863 227.523941,70.828186 222.010223,81.910995 
	C233.421005,81.910995 244.051254,81.910995 254.681519,81.910995 
	C254.830948,81.462112 254.980392,81.013222 255.129837,80.564339 
	C253.472198,79.893387 251.830215,78.692726 250.154205,78.643196 
	C242.906631,78.428986 235.649109,78.551483 227.736923,78.551483 
	C231.522430,71.036125 234.939575,64.252068 238.502731,57.178120 
	C240.774994,61.771923 242.915253,66.098885 245.030273,70.374794 
	C241.461975,70.861588 238.562378,71.257156 235.190903,72.330193 
z"/>
<path fill="#191919" opacity="1.000000" stroke="none" 
	d="
M275.915649,64.916016 
	C276.004852,67.898102 275.588135,70.553459 276.319489,72.841896 
	C276.931366,74.756393 278.885651,76.241867 280.245483,77.917313 
	C281.974335,76.464516 284.560455,75.325623 285.233978,73.486389 
	C286.281555,70.625458 286.233246,67.291824 286.286346,64.152397 
	C286.412964,56.671402 286.327148,49.186810 286.327148,41.039024 
	C288.725922,40.841217 291.058258,40.648888 293.397308,40.456005 
	C293.397308,52.824951 293.874054,64.589172 293.210938,76.288780 
	C292.838379,82.861732 287.520050,86.213913 280.400391,86.186546 
	C274.106689,86.162361 270.285309,83.053810 268.808563,76.702812 
	C268.508240,75.411179 268.163269,74.087334 268.156647,72.776726 
	C268.103607,62.295555 268.127045,51.813992 268.127045,40.885437 
	C270.671661,40.709164 273.100403,40.540920 275.907013,40.346500 
	C275.907013,48.585373 275.907013,56.507874 275.915649,64.916016 
z"/>
<path fill="#171717" opacity="1.000000" stroke="none" 
	d="
M200.246658,48.012085 
	C198.870239,49.223839 197.518661,50.316456 197.149704,51.675781 
	C196.689560,53.371059 197.039215,55.286144 197.039215,57.530128 
	C200.651871,57.530128 204.056931,57.530128 207.811066,57.530128 
	C207.811066,60.175392 207.811066,62.406178 207.811066,65.140297 
	C204.331711,65.366692 200.936020,65.587639 197.265656,65.826462 
	C197.265656,69.591278 197.265656,73.182610 197.265656,77.189911 
	C199.326202,77.189911 201.419022,77.146988 203.509415,77.199928 
	C206.674194,77.280075 208.754974,78.142250 208.791229,82.096741 
	C208.829330,86.249329 206.327194,86.104507 203.608261,86.117561 
	C198.977356,86.139793 194.346283,86.123680 189.257202,86.123680 
	C189.257202,70.709175 189.257202,55.834023 189.257202,40.473175 
	C195.428543,40.473175 201.507767,40.473175 208.218765,40.473175 
	C208.407135,42.474674 208.629166,44.833847 208.928207,48.011311 
	C205.868210,48.011311 203.287888,48.011311 200.246658,48.012085 
z"/>
<path fill="#191919" opacity="1.000000" stroke="none" 
	d="
M395.836792,40.466629 
	C398.769135,40.479675 399.443604,41.439434 398.295288,43.879532 
	C396.391998,47.924038 395.097900,52.296299 392.870728,56.138355 
	C388.845581,63.082111 388.318909,70.557037 388.412231,78.241920 
	C388.442200,80.712563 388.416931,83.183868 388.416931,85.825455 
	C385.661896,85.825455 383.382263,85.825455 380.142059,85.825455 
	C384.225525,69.135063 375.852753,55.514614 369.309418,41.449116 
	C376.544006,39.493507 377.520172,39.993637 379.846008,46.099998 
	C381.132233,49.476910 382.514191,52.817356 384.339966,57.395233 
	C386.631653,52.118416 388.146423,47.814739 390.366913,43.912651 
	C391.275452,42.316128 393.710052,41.588032 395.836792,40.466629 
z"/>
<path fill="#171717" opacity="1.000000" stroke="none" 
	d="
M352.029053,74.034271 
	C352.028809,77.820984 352.028809,81.118027 352.028809,84.318039 
	C345.091278,86.440178 344.050079,85.782806 344.031097,79.156654 
	C343.998230,67.691010 344.211975,56.222687 344.019806,44.760555 
	C343.955231,40.908928 345.361511,39.874344 348.966980,40.085419 
	C353.577240,40.355320 358.215240,40.150917 363.227417,40.150917 
	C363.227417,42.690998 363.227417,45.073479 363.227417,47.854904 
	C359.624542,47.854904 356.344269,47.854904 352.500671,47.854904 
	C352.291412,50.934879 352.106049,53.663410 351.878235,57.016571 
	C355.569916,57.016571 358.953308,57.016571 362.806366,57.016571 
	C362.940552,59.836716 363.047607,62.086403 363.177795,64.822350 
	C359.578003,64.822350 356.173553,64.822350 352.029327,64.822350 
	C352.029327,68.032410 352.029327,70.788506 352.029053,74.034271 
z"/>
<path fill="#1A1A1A" opacity="1.000000" stroke="none" 
	d="
M307.908875,78.911224 
	C307.880402,68.461510 307.880402,58.500572 307.880402,48.150028 
	C306.345215,48.046219 304.682983,48.378681 303.569641,47.745712 
	C302.184113,46.958023 300.690918,45.542824 300.252563,44.093616 
	C299.560669,41.806229 300.787567,40.398239 303.476562,40.436867 
	C309.787262,40.527508 316.100189,40.465874 322.840454,40.465874 
	C322.840454,42.924332 322.840454,45.114101 322.840454,47.606853 
	C320.584229,47.748936 318.471283,47.881989 315.620239,48.061527 
	C315.620239,60.527843 315.620239,73.072266 315.620239,85.810577 
	C312.773987,85.810577 310.663391,85.810577 307.937347,85.810577 
	C307.937347,83.628082 307.937347,81.514038 307.908875,78.911224 
z"/>
<path fill="#1F1F1F" opacity="1.000000" stroke="none" 
	d="
M335.523132,40.396484 
	C336.558105,42.214146 337.691437,43.922863 337.724884,45.652832 
	C337.936615,56.612019 337.905914,67.575897 337.953400,78.538231 
	C337.987000,86.301567 337.985748,86.301575 329.748901,85.617958 
	C329.748901,70.600517 329.748901,55.560341 329.748901,40.297363 
	C331.849945,40.297363 333.481415,40.297363 335.523132,40.396484 
z"/>
<path fill="#FDF4F8" opacity="1.000000" stroke="none" 
	d="
M76.974998,33.060913 
	C79.112442,34.870255 80.853683,35.665047 83.748779,33.541061 
	C88.717552,29.895712 93.913528,31.866516 96.747147,37.743546 
	C98.972229,42.358437 99.351814,48.184052 98.030968,58.400215 
	C99.128372,58.843006 100.346291,59.234318 101.472496,59.806217 
	C106.267670,62.241272 108.316193,67.224876 105.040314,71.385986 
	C101.813797,75.484398 97.363609,78.792717 92.976128,81.742332 
	C90.101776,83.674698 86.341881,83.741028 87.598557,89.115334 
	C88.580269,93.313744 84.489052,97.605530 80.079849,96.983574 
	C74.471619,96.192474 68.955338,94.310707 63.616898,92.316841 
	C62.042980,91.728989 61.205280,89.169975 60.039886,87.527969 
	C59.632477,87.616203 59.281742,87.584442 59.113979,87.744484 
	C56.148842,90.573128 53.006325,93.313889 48.559563,91.679443 
	C43.795567,89.928398 42.205475,85.485291 41.201641,81.094704 
	C40.469193,77.891113 40.622059,74.485100 40.667374,70.783646 
	C41.449982,71.627609 41.945484,72.857262 42.432419,74.503952 
	C44.044201,78.821274 45.453007,82.834099 47.427620,86.545914 
	C47.947563,87.523293 50.408882,88.207825 51.622448,87.842712 
	C52.597477,87.549377 53.034248,85.466919 54.034401,84.336472 
	C56.086590,80.974564 58.372398,77.611832 59.418552,73.899742 
	C61.249706,67.402237 59.218475,65.186348 52.416279,65.087479 
	C46.739532,65.004967 44.565422,67.799767 46.882660,73.027191 
	C48.610657,76.925369 51.226959,80.429779 53.065041,84.171410 
	C49.482037,80.639885 46.281662,77.046486 43.140507,73.043983 
	C41.623528,70.382088 45.280830,66.542595 40.925133,65.132507 
	C32.342716,62.028133 30.749304,56.697586 36.477348,49.584332 
	C39.728428,45.547043 43.224266,41.746136 49.155186,41.855480 
	C50.359684,41.877693 51.582066,40.929890 52.866627,40.400230 
	C51.871792,35.825054 50.510998,30.868017 55.381771,28.125076 
	C61.325291,24.778028 67.148582,27.018164 72.531502,31.015285 
	C70.475281,30.696392 68.428078,30.218193 66.360428,30.101118 
	C64.057343,29.970716 61.523140,29.616693 59.489555,30.399357 
	C57.873386,31.021370 56.859512,33.208324 54.748390,35.666924 
	C62.091721,34.731213 67.585785,34.031143 73.717918,33.530334 
	C75.228989,33.506699 76.101997,33.283806 76.974998,33.060913 
M89.054710,41.316738 
	C91.639839,44.317074 94.224968,47.317410 97.508011,51.127758 
	C96.566864,44.836658 95.793854,39.507034 90.915215,36.254856 
	C89.837845,35.536663 87.597900,36.562450 85.235054,36.871193 
	C86.756203,38.955902 87.524544,40.008900 87.488983,41.639507 
	C86.517632,41.066261 85.546272,40.493015 84.574921,39.919773 
	C83.063026,43.265182 81.131226,46.497940 80.192444,49.997105 
	C79.603760,52.191364 79.659431,55.485497 80.939659,57.037746 
	C82.878586,59.388649 92.043449,59.249676 92.397842,57.339962 
	C92.969322,54.260517 92.151085,50.825008 91.437134,47.648396 
	C91.102089,46.157669 89.531517,44.980736 88.738358,43.541721 
	C88.338257,42.815800 88.423126,41.822586 89.054710,41.316738 
M47.476288,49.028904 
	C45.767792,52.709599 44.059296,56.390293 42.350800,60.070988 
	C42.751373,60.626549 43.151947,61.182114 43.552521,61.737675 
	C48.672802,60.213638 53.801514,58.716576 58.900314,57.123768 
	C59.409164,56.964806 60.186531,56.030972 60.079853,55.781502 
	C58.507988,52.105507 57.608845,47.637615 54.913544,45.086990 
	C52.176937,42.497265 49.803009,46.228775 47.476288,49.028904 
M95.453598,68.726212 
	C95.822159,66.908653 96.190720,65.091095 96.802406,62.074539 
	C90.413567,63.838825 84.815269,65.384796 78.501381,67.128380 
	C79.965683,70.902359 80.802742,73.909569 82.252769,76.584503 
	C84.119041,80.027313 86.964470,80.846252 89.711876,77.550270 
	C91.785660,75.062416 93.362755,72.160530 95.453598,68.726212 
M79.202583,86.999619 
	C82.534233,86.850197 82.221786,85.107620 80.727203,83.170624 
	C77.716194,79.268341 74.574821,75.466637 70.828918,70.804024 
	C67.307083,75.148079 65.053452,77.325066 63.541424,79.932159 
	C61.190613,83.985527 61.988289,86.165733 66.686836,87.076530 
	C70.448105,87.805656 74.478279,87.147537 79.202583,86.999619 
M67.457588,36.033588 
	C64.272308,36.441357 61.087025,36.849125 57.901741,37.256893 
	C57.635258,37.756344 57.368774,38.255798 57.102287,38.755249 
	C61.169739,42.994358 65.237190,47.233467 69.330772,51.499813 
	C71.115456,50.103424 72.367622,49.583134 72.851891,48.660011 
	C74.402992,45.703259 75.669731,42.597328 77.046219,39.548973 
	C74.142784,38.373516 71.239357,37.198055 67.457588,36.033588 
M102.304527,69.612793 
	C103.101273,64.917206 102.888283,64.620270 98.740524,64.232574 
	C96.953041,69.381638 95.192459,74.453224 93.431870,79.524811 
	C93.792320,79.779922 94.152771,80.035027 94.513222,80.290138 
	C97.022804,76.968361 99.532387,73.646591 102.304527,69.612793 
M44.696121,48.367588 
	C45.138073,47.400040 45.580025,46.432491 46.233810,45.001186 
	C40.987206,47.316143 36.296619,53.303356 37.086651,56.780518 
	C37.414024,58.221397 39.073792,59.359554 40.586277,61.190655 
	C42.118191,56.237209 43.229996,52.642174 44.696121,48.367588 
M69.552933,90.803261 
	C68.537529,90.892838 67.522125,90.982414 66.506721,91.071991 
	C71.390312,93.785973 76.421303,95.449364 81.584885,92.915977 
	C82.695213,92.371231 82.851517,89.881981 83.634636,87.787369 
	C78.418091,88.953354 74.394226,89.852753 69.552933,90.803261 
M73.203461,62.372540 
	C72.099854,61.018337 70.996246,59.664135 69.892639,58.309937 
	C68.712959,59.290348 66.997292,60.070316 66.530891,61.317474 
	C66.186028,62.239632 67.567101,64.874901 68.008179,64.835434 
	C69.762924,64.678406 71.450577,63.771656 73.203461,62.372540 
z"/>
<path fill="#E576A3" opacity="1.000000" stroke="none" 
	d="
M42.440987,74.086906 
	C41.945484,72.857262 41.449982,71.627609 40.667007,70.389961 
	C40.577065,68.886383 40.774593,67.390808 40.948627,65.513870 
	C45.280830,66.542595 41.623528,70.382088 43.003944,73.226242 
	C42.808155,73.817619 42.440987,74.086906 42.440987,74.086906 
z"/>
<path fill="#DA407E" opacity="1.000000" stroke="none" 
	d="
M76.973297,32.785904 
	C76.101997,33.283806 75.228989,33.506699 74.152740,33.535374 
	C73.949501,32.547321 73.949501,31.753487 73.949501,30.367880 
	C75.197258,31.252689 76.084427,31.881794 76.973297,32.785904 
z"/>
<path fill="#F2F2F2" opacity="1.000000" stroke="none" 
	d="
M168.174500,67.492683 
	C169.602966,66.885818 172.097733,66.361191 172.182755,66.622032 
	C173.024521,69.204498 174.122391,72.003838 173.783585,74.561066 
	C173.571609,76.161110 171.026215,77.452003 169.527863,78.881622 
	C169.059402,78.623596 168.590927,78.365578 168.122467,78.107552 
	C168.122467,74.718178 168.122467,71.328804 168.174500,67.492683 
z"/>
<path fill="#F6F6F6" opacity="1.000000" stroke="none" 
	d="
M173.018005,55.454399 
	C171.617950,56.957619 170.318817,58.058701 168.329193,59.745014 
	C168.329193,55.097435 168.329193,51.491207 168.329193,47.639904 
	C172.758194,48.411835 173.814682,51.151752 173.018005,55.454399 
z"/>
<path fill="#F7F7F7" opacity="1.000000" stroke="none" 
	d="
M235.426849,71.991455 
	C238.562378,71.257156 241.461975,70.861588 245.030273,70.374794 
	C242.915253,66.098885 240.774994,61.771923 238.502731,57.178120 
	C234.939575,64.252068 231.522430,71.036125 227.736923,78.551483 
	C235.649109,78.551483 242.906631,78.428986 250.154205,78.643196 
	C251.830215,78.692726 253.472198,79.893387 255.129837,80.564339 
	C254.980392,81.013222 254.830948,81.462112 254.681519,81.910995 
	C244.051254,81.910995 233.421005,81.910995 222.010223,81.910995 
	C227.523941,70.828186 232.921997,59.977863 238.489853,48.786236 
	C242.798737,57.419441 246.933838,65.704475 251.307678,74.467842 
	C245.419983,74.467842 240.039795,74.467842 234.529495,74.467842 
	C234.715317,73.867249 234.953110,73.098717 235.426849,71.991455 
z"/>
<path fill="#D83476" opacity="1.000000" stroke="none" 
	d="
M47.672771,48.721336 
	C49.803009,46.228775 52.176937,42.497265 54.913544,45.086990 
	C57.608845,47.637615 58.507988,52.105507 60.079853,55.781502 
	C60.186531,56.030972 59.409164,56.964806 58.900314,57.123768 
	C53.801514,58.716576 48.672802,60.213638 43.552521,61.737675 
	C43.151947,61.182114 42.751373,60.626549 42.350800,60.070988 
	C44.059296,56.390293 45.767792,52.709599 47.672771,48.721336 
z"/>
<path fill="#D83576" opacity="1.000000" stroke="none" 
	d="
M88.288704,40.950230 
	C88.423126,41.822586 88.338257,42.815800 88.738358,43.541721 
	C89.531517,44.980736 91.102089,46.157669 91.437134,47.648396 
	C92.151085,50.825008 92.969322,54.260517 92.397842,57.339962 
	C92.043449,59.249676 82.878586,59.388649 80.939659,57.037746 
	C79.659431,55.485497 79.603760,52.191364 80.192444,49.997105 
	C81.131226,46.497940 83.063026,43.265182 84.574921,39.919773 
	C85.546272,40.493015 86.517632,41.066261 87.872688,41.331745 
	C88.256393,41.023983 88.288704,40.950230 88.288704,40.950230 
z"/>
<path fill="#D73275" opacity="1.000000" stroke="none" 
	d="
M95.307251,69.084564 
	C93.362755,72.160530 91.785660,75.062416 89.711876,77.550270 
	C86.964470,80.846252 84.119041,80.027313 82.252769,76.584503 
	C80.802742,73.909569 79.965683,70.902359 78.501381,67.128380 
	C84.815269,65.384796 90.413567,63.838825 96.802406,62.074539 
	C96.190720,65.091095 95.822159,66.908653 95.307251,69.084564 
z"/>
<path fill="#D73275" opacity="1.000000" stroke="none" 
	d="
M53.447670,84.109543 
	C51.226959,80.429779 48.610657,76.925369 46.882660,73.027191 
	C44.565422,67.799767 46.739532,65.004967 52.416279,65.087479 
	C59.218475,65.186348 61.249706,67.402237 59.418552,73.899742 
	C58.372398,77.611832 56.086590,80.974564 53.996681,84.308762 
	C53.634422,84.122940 53.447670,84.109543 53.447670,84.109543 
z"/>
<path fill="#D73275" opacity="1.000000" stroke="none" 
	d="
M78.795853,87.052361 
	C74.478279,87.147537 70.448105,87.805656 66.686836,87.076530 
	C61.988289,86.165733 61.190613,83.985527 63.541424,79.932159 
	C65.053452,77.325066 67.307083,75.148079 70.828918,70.804024 
	C74.574821,75.466637 77.716194,79.268341 80.727203,83.170624 
	C82.221786,85.107620 82.534233,86.850197 78.795853,87.052361 
z"/>
<path fill="#D73174" opacity="1.000000" stroke="none" 
	d="
M67.896759,36.028091 
	C71.239357,37.198055 74.142784,38.373516 77.046219,39.548973 
	C75.669731,42.597328 74.402992,45.703259 72.851891,48.660011 
	C72.367622,49.583134 71.115456,50.103424 69.330772,51.499813 
	C65.237190,47.233467 61.169739,42.994358 57.102287,38.755249 
	C57.368774,38.255798 57.635258,37.756344 57.901741,37.256893 
	C61.087025,36.849125 64.272308,36.441357 67.896759,36.028091 
z"/>
<path fill="#DA3E7D" opacity="1.000000" stroke="none" 
	d="
M88.671707,41.133484 
	C88.288704,40.950230 88.256393,41.023983 88.274643,41.042942 
	C87.524544,40.008900 86.756203,38.955902 85.235054,36.871193 
	C87.597900,36.562450 89.837845,35.536663 90.915215,36.254856 
	C95.793854,39.507034 96.566864,44.836658 97.508011,51.127758 
	C94.224968,47.317410 91.639839,44.317074 88.671707,41.133484 
z"/>
<path fill="#DA407E" opacity="1.000000" stroke="none" 
	d="
M102.173248,69.968803 
	C99.532387,73.646591 97.022804,76.968361 94.513222,80.290138 
	C94.152771,80.035027 93.792320,79.779922 93.431870,79.524811 
	C95.192459,74.453224 96.953041,69.381638 98.740524,64.232574 
	C102.888283,64.620270 103.101273,64.917206 102.173248,69.968803 
z"/>
<path fill="#D93B7B" opacity="1.000000" stroke="none" 
	d="
M53.065041,84.171410 
	C53.447670,84.109543 53.634422,84.122940 53.672142,84.150650 
	C53.034248,85.466919 52.597477,87.549377 51.622448,87.842712 
	C50.408882,88.207825 47.947563,87.523293 47.427620,86.545914 
	C45.453007,82.834099 44.044201,78.821274 42.432419,74.503952 
	C42.440987,74.086906 42.808155,73.817619 42.944717,73.635361 
	C46.281662,77.046486 49.482037,80.639885 53.065041,84.171410 
z"/>
<path fill="#D93B7B" opacity="1.000000" stroke="none" 
	d="
M44.518963,48.707363 
	C43.229996,52.642174 42.118191,56.237209 40.586277,61.190655 
	C39.073792,59.359554 37.414024,58.221397 37.086651,56.780518 
	C36.296619,53.303356 40.987206,47.316143 46.233810,45.001186 
	C45.580025,46.432491 45.138073,47.400040 44.518963,48.707363 
z"/>
<path fill="#D9397A" opacity="1.000000" stroke="none" 
	d="
M69.961647,90.777710 
	C74.394226,89.852753 78.418091,88.953354 83.634636,87.787369 
	C82.851517,89.881981 82.695213,92.371231 81.584885,92.915977 
	C76.421303,95.449364 71.390312,93.785973 66.506721,91.071991 
	C67.522125,90.982414 68.537529,90.892838 69.961647,90.777710 
z"/>
<path fill="#DA427F" opacity="1.000000" stroke="none" 
	d="
M73.183273,62.757561 
	C71.450577,63.771656 69.762924,64.678406 68.008179,64.835434 
	C67.567101,64.874901 66.186028,62.239632 66.530891,61.317474 
	C66.997292,60.070316 68.712959,59.290348 69.892639,58.309937 
	C70.996246,59.664135 72.099854,61.018337 73.183273,62.757561 
z"/>
</svg>